
Format                                   : MPEG-PS
File size                                : 1.18 GiB
Duration                                 : 1h 26mn
Overall bit rate mode                    : Variable
Overall bit rate                         : 1 955 Kbps
Writing library                          : Created by Nero

Video
ID                                       : 224 (0xE0)
Format                                   : MPEG Video
Format version                           : Version 2
Format profile                           : Main@Main
Format settings, BVOP                    : Yes
Format settings, Matrix                  : Custom
Format settings, GOP                     : M=3, N=15
Duration                                 : 1h 26mn
Bit rate mode                            : Variable
Bit rate                                 : 1 724 Kbps
Maximum bit rate                         : 9 641 Kbps
Width                                    : 352 pixels
Height                                   : 480 pixels
Display aspect ratio                     : 4:3
Frame rate                               : 29.970 fps
Standard                                 : NTSC
Color space                              : YUV
Chroma subsampling                       : 4:2:0
Bit depth                                : 8 bits
Scan type                                : Progressive
Scan order                               : Bottom Field First
Compression mode                         : Lossy
Bits/(Pixel*Frame)                       : 0.340
Stream size                              : 1.04 GiB (88%)
Writing library                          : Created by Nero

Audio
ID                                       : 189 (0xBD)-128 (0x80)
Format                                   : AC-3
Format/Info                              : Audio Coding 3
Mode extension                           : CM (complete main)
Muxing mode                              : DVD-Video
Duration                                 : 1h 26mn
Bit rate mode                            : Constant
Bit rate                                 : 192 Kbps
Channel(s)                               : 2 channels
Channel positions                        : Front: L R
Sampling rate                            : 48.0 KHz
Bit depth                                : 16 bits
Compression mode                         : Lossy
Delay relative to video                  : -34ms
Stream size                              : 118 MiB (10%)
 
http://i.imgur.com/0Q8NQ.png
 
http://i.imgur.com/UqaLB.png
 
http://i.imgur.com/2oFOA.png